# xmcd
#
# Track frame offsets:
#       182
#       8987
#       17305
#       28600
#       41295
#       50217
#       62467
#       74250
#       84535
#       92065
#       101970
#       112110
#       119755
#       128767
#       139317
#       148425
#       156307
#       165907
#       174722
#       182505
#
# Disc length: 2573 seconds
#
# Revision: 3
# Processed by: cddbd v1.4PL0 Copyright (c) Steve Scherf et al.
# Submitted via: WhereIsIt 3.25
#
DISCID=1c0a0b14
DTITLE=Jim Reeves - Live!
DYEAR=1900
DGENRE=
TTITLE0=Yonder Comes A Sucker
TTITLE1=Waiting For A Train
TTITLE2=Am I Losing You?
TTITLE3=When God Dips His Live In My Heart
TTITLE4=According To My Heart
TTITLE5=Four Walls
TTITLE6=Mexican Joe
TTITLE7=Anna Marie
TTITLE8=Blue Boy
TTITLE9=Softly and Tenderly
TTITLE10=He'll Have To Go
TTITLE11=Bimbo
TTITLE12=I'd Like To Be
TTITLE13=Peace In The Valley
TTITLE14=Billy Bayou
TTITLE15=In A Mansion Stands My Love
TTITLE16=I'm Getting Better
TTITLE17=(Gimme That) Old Time Religion
TTITLE18=I Know One
TTITLE19=I Missed Me
EXTD=
EXTT0=
EXTT1=
EXTT2=
EXTT3=
EXTT4=
EXTT5=
EXTT6=
EXTT7=
EXTT8=
EXTT9=
EXTT10=
EXTT11=
EXTT12=
EXTT13=
EXTT14=
EXTT15=
EXTT16=
EXTT17=
EXTT18=
EXTT19=
PLAYORDER=
